<?xml version="1.0" standalone="no"?>
<!DOCTYPE svg PUBLIC "-//W3C//DTD SVG 20010904//EN"
 "http://www.w3.org/TR/2001/REC-SVG-20010904/DTD/svg10.dtd">
<svg version="1.0" xmlns="http://www.w3.org/2000/svg"
 width="500.000000pt" height="500.000000pt" viewBox="0 0 500.000000 500.000000"
 preserveAspectRatio="xMidYMid meet">
<metadata>
Created by potrace 1.14, written by Peter Selinger 2001-2017
</metadata>
<g transform="translate(0.000000,500.000000) scale(0.100000,-0.100000)"
fill="#000000" stroke="none">
<path d="M2901 4001 c-33 -33 -62 -57 -65 -53 -3 3 -6 0 -6 -7 0 -6 -69 -80
-152 -164 -84 -83 -152 -155 -150 -159 1 -4 -7 -8 -19 -8 -11 0 -18 -3 -16 -7
5 -11 -91 -102 -99 -94 -4 3 -4 -2 -1 -11 6 -16 -3 -23 -25 -19 -5 0 -8 -4 -8
-9 0 -6 -17 -27 -37 -47 -21 -20 -37 -40 -36 -45 2 -4 -6 -8 -18 -8 -11 0 -18
-4 -15 -9 3 -5 -1 -12 -10 -15 -8 -3 -12 -11 -8 -17 4 -8 3 -9 -4 -5 -7 4 -12
2 -12 -4 0 -6 -4 -8 -10 -5 -5 3 -10 2 -10 -4 0 -14 -67 -80 -74 -73 -3 3 -6
0 -6 -6 0 -14 -158 -172 -172 -172 -6 0 -8 -3 -5 -7 7 -7 -39 -53 -54 -53 -5
0 -8 -4 -6 -8 2 -9 -63 -72 -75 -72 -5 0 -7 -3 -6 -7 4 -11 -111 -123 -125
-123 -5 0 -8 -3 -5 -6 8 -7 -140 -154 -155 -154 -6 0 -8 -2 -5 -6 8 -7 -105
-122 -114 -117 -5 2 -8 -1 -8 -7 0 -14 -67 -79 -75 -72 -3 3 -5 0 -5 -7 0 -13
-8 -22 -58 -64 -19 -15 -31 -27 -28 -27 3 0 -10 -16 -30 -35 -19 -19 -39 -35
-44 -35 -6 0 -9 -6 -8 -12 2 -7 -3 -12 -9 -10 -12 2 -17 -10 -14 -31 0 -4 -2
-6 -6 -5 -13 2 -43 -14 -43 -23 0 -6 -9 -19 -20 -31 -11 -12 -20 -19 -20 -15
0 3 -10 -4 -23 -16 -13 -12 -22 -25 -20 -30 3 -4 -6 -11 -19 -16 -13 -6 -19
-10 -15 -10 4 -1 2 -7 -5 -15 -7 -8 -16 -12 -20 -9 -5 2 -8 1 -8 -4 0 -14 -47
-63 -54 -56 -3 3 -6 -2 -6 -12 0 -10 -3 -15 -7 -12 -3 4 -17 -9 -30 -28 -13
-20 -27 -34 -31 -31 -7 4 -25 -11 -33 -29 -2 -5 -7 -9 -11 -7 -5 1 -8 -2 -8
-8 0 -14 -37 -50 -44 -42 -3 3 -6 -2 -6 -11 0 -9 -7 -17 -16 -17 -8 0 -12 -4
-9 -10 3 -5 -1 -10 -9 -10 -8 0 -18 -5 -22 -12 -5 -7 -2 -9 7 -4 8 4 5 0 -5
-8 -11 -9 -24 -16 -30 -16 -5 0 -7 -3 -3 -6 7 -7 -41 -54 -55 -54 -5 0 -6 -5
-3 -10 3 -5 -1 -10 -9 -10 -9 0 -15 -4 -13 -9 1 -5 -13 -21 -32 -35 -19 -14
-31 -26 -26 -26 5 0 -6 -11 -25 -25 -19 -14 -30 -25 -26 -25 5 0 -8 -13 -29
-30 -21 -16 -34 -30 -29 -30 4 0 -7 -11 -26 -25 -19 -14 -30 -25 -25 -25 5 0
-5 -11 -23 -23 -17 -13 -31 -26 -29 -28 1 -2 -10 -16 -25 -31 -15 -15 -28 -25
-28 -22 0 3 -14 -11 -31 -31 l-32 -36 32 -28 c17 -15 28 -31 24 -34 -3 -4 -1
-7 5 -7 16 0 138 -122 134 -134 -2 -6 -1 -8 3 -4 9 8 35 -16 35 -32 0 -6 5 -8
10 -5 6 3 10 1 10 -5 0 -6 4 -8 10 -5 5 3 10 1 10 -6 0 -15 56 -69 72 -69 9 0
8 -3 -2 -10 -11 -7 -12 -10 -2 -10 8 0 28 -15 45 -32 16 -18 35 -32 41 -30 6
2 8 1 5 -3 -8 -7 76 -95 91 -95 5 0 10 -5 10 -11 0 -6 21 11 47 38 26 26 51
47 55 46 7 -3 12 12 9 30 0 4 5 7 13 7 8 0 17 7 20 16 3 8 10 12 16 9 5 -3 10
-1 10 4 0 14 37 51 50 51 5 0 9 3 9 8 -3 19 2 33 11 27 6 -3 13 1 16 9 3 9 13
16 21 16 8 0 11 5 8 10 -3 6 1 10 9 10 9 0 15 3 15 8 -3 19 2 33 11 27 6 -3
13 1 16 9 3 9 13 16 22 16 8 0 13 3 9 6 -8 8 25 44 35 38 4 -3 8 0 8 6 0 6 15
25 32 43 18 17 32 35 30 40 -1 5 2 6 8 2 5 -3 13 1 16 9 3 9 13 16 22 16 8 0
13 3 9 6 -8 8 25 44 35 38 4 -3 8 -1 8 5 0 14 538 550 545 543 3 -3 5 1 5 9 0
17 36 50 44 42 3 -4 6 -1 6 5 0 13 80 92 93 92 6 0 8 3 4 6 -8 8 25 44 42 44
8 0 12 3 8 6 -6 6 34 50 43 47 3 0 11 5 18 13 7 8 10 14 7 14 -9 0 18 26 30
29 6 1 16 13 23 27 7 13 20 24 29 24 9 0 14 3 10 6 -7 7 29 44 44 44 5 0 7 4
4 10 -3 6 2 10 11 10 10 0 15 3 11 6 -8 8 25 44 35 38 4 -3 8 2 8 10 0 9 7 16
16 16 8 0 13 4 9 9 -3 5 4 12 15 16 11 4 18 11 15 16 -4 5 5 14 19 20 14 7 23
16 20 20 -3 5 2 9 10 9 9 0 15 4 14 9 -3 10 72 81 86 81 5 0 6 3 3 7 -4 3 5
15 20 25 16 10 24 18 20 18 -4 0 -2 6 5 14 7 8 16 12 20 10 4 -2 9 5 13 16 3
11 13 20 21 20 8 0 12 5 9 11 -4 6 2 13 14 16 11 3 19 9 16 13 -3 5 4 11 15
15 11 4 18 11 15 16 -4 5 5 14 19 20 14 7 23 15 21 20 -3 4 4 10 15 14 11 4
19 9 17 13 -2 4 4 15 15 25 10 9 18 14 18 10 1 -5 7 3 15 17 8 14 15 21 15 15
0 -5 6 1 13 15 8 14 19 24 25 23 7 -2 12 4 12 12 0 8 6 15 14 15 7 0 16 10 19
22 4 12 9 19 12 16 7 -6 45 26 45 38 0 3 7 12 15 20 8 9 15 13 15 9 0 -3 6 0
14 7 8 7 13 15 11 18 -2 3 3 11 11 18 8 7 14 11 14 8 0 -2 15 10 33 27 18 18
31 35 30 39 -2 4 6 9 17 13 11 4 18 10 15 15 -3 5 4 12 16 15 11 4 18 9 15 12
-3 3 10 18 29 33 19 15 33 29 32 31 -1 2 17 23 40 45 24 23 43 39 43 36 0 -3
11 9 25 28 14 19 25 30 25 26 0 -5 13 7 29 27 15 20 31 34 34 31 3 -3 8 4 12
15 3 12 10 19 15 16 5 -3 11 4 15 15 4 11 10 18 15 15 5 -3 11 4 15 15 4 11
10 18 14 15 4 -2 14 6 21 20 12 22 9 27 -39 74 -29 28 -57 51 -62 51 -5 0 -8
3 -8 8 3 17 -2 32 -10 30 -10 -4 -91 78 -91 93 0 5 -4 8 -9 5 -4 -3 -25 15
-46 39 -21 24 -42 42 -46 40 -8 -6 -23 25 -20 40 2 5 0 7 -4 3 -9 -8 -35 16
-35 31 0 6 -4 10 -8 9 -5 -2 -26 15 -48 36 -21 22 -38 43 -36 48 1 4 -5 8 -13
8 -8 0 -15 4 -15 9 0 5 -7 11 -15 15 -10 4 -36 -15 -74 -53z"/>
<path d="M3608 3299 c-32 -33 -58 -65 -58 -70 0 -5 -4 -8 -8 -6 -12 3 -82 -70
-82 -86 0 -8 -4 -7 -10 3 -8 12 -10 12 -10 1 0 -18 -62 -77 -75 -73 -5 2 -7 0
-3 -4 10 -9 -12 -35 -23 -28 -5 3 -8 0 -7 -8 2 -7 -3 -12 -10 -10 -6 1 -11 -4
-10 -10 2 -7 -3 -12 -10 -10 -6 1 -11 -1 -10 -5 4 -12 -176 -188 -187 -185 -5
2 -7 1 -3 -3 4 -4 -20 -33 -53 -64 -32 -32 -56 -61 -52 -65 5 -4 3 -6 -3 -4
-6 2 -40 -27 -77 -64 -36 -38 -72 -68 -79 -68 -9 0 -9 -3 2 -10 11 -7 12 -10
2 -10 -20 0 -72 -52 -65 -64 4 -6 3 -8 -1 -4 -10 8 -47 -23 -40 -34 3 -5 1 -7
-3 -6 -12 4 -79 -63 -75 -75 1 -4 -1 -6 -6 -3 -11 7 -42 -30 -34 -40 4 -4 1
-4 -6 0 -7 4 -15 1 -18 -8 -3 -8 -15 -18 -26 -22 -11 -3 -17 -8 -14 -11 3 -3
-16 -26 -42 -50 -26 -25 -45 -50 -44 -57 2 -6 0 -8 -4 -3 -4 4 -32 -19 -63
-50 -30 -32 -59 -57 -63 -55 -4 1 -8 -3 -8 -9 0 -15 -157 -169 -165 -161 -4 4
-5 2 -3 -3 1 -6 -18 -30 -44 -54 -26 -25 -45 -48 -42 -53 3 -4 -2 -5 -11 -2
-9 4 -15 3 -13 -2 3 -11 -129 -144 -143 -144 -5 0 -8 -3 -6 -7 5 -10 -180
-193 -187 -185 -3 3 -6 1 -6 -5 0 -6 -36 -47 -79 -91 l-79 -80 32 -36 c18 -19
36 -33 40 -29 3 3 6 -1 6 -10 0 -8 9 -18 19 -22 10 -3 21 -15 24 -26 3 -11 15
-23 26 -26 11 -3 23 -13 26 -23 3 -10 13 -21 21 -24 8 -3 12 -11 9 -16 -4 -6
-3 -10 2 -9 23 4 35 -2 29 -16 -3 -8 -2 -14 2 -13 14 3 42 -14 36 -23 -3 -5 3
-12 13 -16 23 -9 43 -35 36 -47 -4 -5 -1 -6 5 -2 7 4 12 2 12 -3 0 -6 8 -11
17 -11 9 0 14 -3 10 -6 -8 -8 16 -33 26 -27 6 4 11 -12 8 -30 0 -4 2 -6 7 -5
4 2 20 -7 36 -19 16 -13 26 -23 22 -23 -4 0 -1 -6 6 -14 7 -8 16 -12 21 -9 4
2 7 -3 7 -11 0 -8 9 -18 21 -21 16 -5 34 7 89 64 38 39 75 71 81 71 7 0 10 2
7 5 -8 9 356 373 366 367 5 -3 7 2 3 11 -4 11 -2 14 9 10 7 -3 14 0 14 5 0 14
87 102 100 102 5 0 10 4 10 9 0 14 45 61 59 61 6 0 11 5 11 11 0 12 62 74 71
71 4 -1 17 14 30 33 13 19 32 38 42 41 9 3 17 10 17 15 0 11 60 69 72 69 5 0
8 4 8 8 0 5 19 29 42 53 23 24 38 37 34 29 -5 -8 3 -1 18 15 14 17 25 34 26
38 0 5 5 5 12 1 8 -5 9 -2 5 10 -4 10 -3 15 3 11 6 -3 10 -2 10 3 0 5 11 15
25 22 14 7 25 20 25 27 0 8 5 11 10 8 6 -3 10 -2 10 3 0 4 14 24 31 43 18 19
29 27 24 19 -4 -8 4 -1 19 15 14 17 25 34 26 38 0 5 5 5 10 2 6 -3 10 2 10 11
0 10 3 15 6 11 7 -6 34 15 29 23 -2 3 3 11 11 18 8 7 14 9 14 5 0 -4 11 8 25
27 14 19 25 30 25 24 0 -5 8 3 18 19 10 15 22 24 25 20 4 -3 7 1 7 11 0 9 3
15 8 13 4 -3 13 1 20 9 7 8 10 14 7 14 -3 0 0 6 7 14 7 8 15 12 17 10 2 -2 14
10 26 26 12 16 25 27 28 23 4 -3 7 2 7 12 0 10 3 16 6 13 7 -8 54 36 54 51 0
7 5 9 10 6 6 -3 10 -1 10 5 0 6 4 8 10 5 6 -3 7 1 4 9 -4 11 0 16 11 16 9 0
14 3 12 8 -3 4 1 13 9 20 8 7 14 9 14 5 1 -4 7 3 15 17 8 14 14 21 15 17 0
-12 50 44 50 56 0 6 3 8 6 4 8 -8 34 18 34 33 0 6 5 8 10 5 6 -3 10 2 10 11 0
10 3 15 6 12 7 -7 54 39 54 53 0 6 5 7 10 4 6 -3 10 1 10 10 0 9 3 14 8 12 7
-5 33 17 32 28 0 3 2 5 5 5 9 1 55 51 55 61 0 6 5 7 10 4 6 -3 10 -2 10 4 0 6
9 19 21 30 l21 19 -266 266 c-147 146 -267 266 -269 266 -1 0 -28 -28 -59 -61z"/>
<path d="M4370 2639 c0 -6 -7 -8 -16 -5 -8 3 -12 2 -9 -4 3 -6 -1 -13 -9 -16
-9 -3 -16 -12 -16 -20 0 -8 -3 -13 -8 -11 -4 1 -45 -36 -92 -83 -47 -47 -89
-84 -93 -82 -5 1 -6 -2 -2 -8 3 -5 -1 -13 -9 -16 -9 -3 -16 -13 -16 -22 0 -8
-3 -13 -6 -9 -8 7 -34 -17 -34 -32 0 -6 -3 -10 -7 -9 -11 4 -73 -59 -73 -72 0
-5 -3 -9 -7 -8 -10 4 -59 -45 -55 -54 1 -5 -7 -8 -19 -8 -11 0 -17 -5 -14 -10
3 -6 -1 -13 -9 -16 -9 -3 -16 -12 -16 -20 0 -8 -3 -13 -7 -12 -10 4 -59 -45
-56 -54 2 -5 -2 -8 -8 -8 -15 0 -39 -26 -32 -34 4 -3 -1 -6 -9 -6 -9 0 -18 -7
-22 -15 -3 -8 -13 -15 -22 -15 -9 0 -14 -6 -11 -13 5 -13 -30 -43 -45 -39 -5
1 -8 -2 -8 -7 0 -5 -25 -36 -55 -67 -30 -32 -55 -55 -55 -51 0 4 -6 2 -14 -5
-8 -7 -13 -16 -13 -19 3 -9 -102 -109 -114 -109 -5 0 -8 -4 -6 -9 1 -4 -31
-40 -70 -79 -40 -39 -73 -76 -73 -82 0 -5 -3 -9 -7 -9 -17 3 -33 -1 -32 -8 3
-19 -2 -33 -10 -31 -10 3 -111 -99 -111 -113 0 -5 -3 -8 -7 -8 -20 3 -34 -2
-28 -10 3 -6 -3 -15 -14 -20 -11 -6 -23 -20 -26 -31 -4 -11 -10 -18 -14 -16
-4 3 -13 1 -20 -3 -10 -6 -9 -11 3 -24 9 -8 16 -21 16 -27 0 -6 11 -15 25 -20
14 -5 30 -20 35 -32 5 -13 9 -20 9 -16 1 14 51 -35 51 -49 0 -8 4 -12 9 -8 5
3 12 -4 16 -15 3 -11 10 -20 16 -20 14 0 49 -33 49 -47 0 -7 7 -13 15 -13 8 0
15 -8 15 -17 0 -9 3 -14 6 -10 8 7 34 -17 34 -32 0 -5 9 -12 19 -16 11 -3 22
-13 25 -21 3 -8 10 -12 16 -9 6 3 7 -1 4 -9 -3 -9 -2 -16 3 -16 15 0 53 -36
46 -44 -3 -3 1 -6 10 -6 10 0 17 -7 17 -16 0 -10 5 -14 16 -10 8 3 13 2 10 -2
-8 -13 22 -44 35 -36 7 4 10 3 7 -2 -3 -5 0 -15 8 -22 10 -10 14 -10 14 -1 0
7 3 9 7 6 3 -4 17 8 30 25 12 18 23 28 23 23 0 -5 11 6 25 25 14 19 25 30 25
25 0 -5 11 6 25 25 14 19 25 31 25 27 0 -4 6 -2 14 5 8 7 12 15 10 17 -2 3 8
13 23 23 16 10 24 18 19 18 -6 0 4 11 22 23 17 13 29 27 25 30 -3 4 0 7 9 7 8
0 27 17 41 37 15 21 27 34 27 28 0 -5 11 5 23 23 13 17 27 29 30 25 4 -3 7 -2
7 3 0 14 46 64 59 64 7 0 9 5 6 10 -3 6 1 10 9 10 8 0 18 9 21 20 4 11 9 19
13 17 10 -5 42 30 34 37 -3 3 2 6 11 6 9 0 16 4 14 9 -1 5 3 10 8 12 6 1 19
14 29 28 26 35 41 50 31 31 -5 -8 4 -2 18 13 15 15 27 32 27 38 0 5 6 9 13 9
13 0 34 21 75 75 13 16 28 30 35 30 7 1 11 6 10 12 -2 7 6 15 17 18 11 4 20
13 20 20 0 8 5 17 12 21 7 5 8 3 3 -7 -5 -7 19 15 53 50 34 35 62 67 62 73 0
5 3 7 8 5 9 -5 62 50 54 57 -3 3 0 6 6 6 14 0 82 69 82 83 0 6 3 8 6 5 7 -7
104 92 104 106 0 5 2 7 6 4 3 -3 39 28 79 69 l75 75 -40 38 c-21 21 -36 40
-33 44 4 3 1 6 -7 6 -7 0 -31 20 -54 45 -24 25 -49 45 -57 45 -11 0 -12 2 -1
9 10 6 8 10 -8 14 -12 3 -19 10 -15 16 3 6 1 11 -5 11 -17 0 -40 26 -32 35 4
5 2 5 -4 2 -6 -3 -28 14 -49 38 -21 24 -43 42 -48 38 -6 -3 -7 -2 -4 4 7 11
-28 44 -38 35 -4 -4 -5 -2 -4 3 5 15 -33 55 -44 48 -6 -3 -7 -2 -4 3 3 6 -14
29 -38 52 -46 44 -55 49 -55 31z"/>
<path d="M2469 1093 c-13 -16 -12 -17 4 -4 16 13 21 21 13 21 -2 0 -10 -8 -17
-17z"/>
</g>
</svg>
